{
	"asset":{
		"generator":"Khronos glTF Blender I/O v4.4.56",
		"version":"2.0"
	},
	"scene":0,
	"scenes":[
		{
			"name":"Scene",
			"nodes":[
				14
			]
		}
	],
	"nodes":[
		{
			"mesh":0,
			"name":"actionButtons",
			"translation":[
				-0.00014255096903070807,
				0,
				1.4390239812200889e-05
			]
		},
		{
			"mesh":1,
			"name":"analogs",
			"translation":[
				-0.00014255096903070807,
				0,
				1.4390239812200889e-05
			]
		},
		{
			"mesh":2,
			"name":"backPlate",
			"translation":[
				-0.00014255096903070807,
				0,
				1.4424324035644531e-05
			]
		},
		{
			"mesh":3,
			"name":"directionalButtons",
			"translation":[
				-0.00014255096903070807,
				0,
				1.4390239812200889e-05
			]
		},
		{
			"mesh":4,
			"name":"frontPlateLowerMask",
			"translation":[
				-0.00014255096903070807,
				0,
				1.4424324035644531e-05
			]
		},
		{
			"mesh":5,
			"name":"frontPlateOutline",
			"translation":[
				-0.00014255096903070807,
				0,
				1.4390239812200889e-05
			]
		},
		{
			"mesh":6,
			"name":"frontPlateSideMasks",
			"translation":[
				-0.00014255096903070807,
				0,
				1.4305112927104346e-05
			]
		},
		{
			"mesh":7,
			"name":"frontPlateTouchpad",
			"translation":[
				-0.00014255096903070807,
				0,
				1.4390239812200889e-05
			]
		},
		{
			"mesh":8,
			"name":"internals",
			"translation":[
				-0.00014255096903070807,
				0,
				1.4390239812200889e-05
			]
		},
		{
			"mesh":9,
			"name":"optionsShareButtons",
			"translation":[
				-0.00014255096903070807,
				0,
				1.4390239812200889e-05
			]
		},
		{
			"mesh":10,
			"name":"psButton",
			"translation":[
				-0.00014255096903070807,
				0,
				1.4390239812200889e-05
			]
		},
		{
			"mesh":11,
			"name":"triggers",
			"translation":[
				-0.00014255096903070807,
				0,
				1.4390239812200889e-05
			]
		},
		{
			"children":[
				0,
				1,
				2,
				3,
				4,
				5,
				6,
				7,
				8,
				9,
				10,
				11
			],
			"name":"DualSense",
			"translation":[
				-7.127547723939642e-05,
				0,
				7.195119451353094e-06
			]
		},
		{
			"children":[
				12
			],
			"name":"Collada visual scene group",
			"rotation":[
				0.70710688829422,
				0,
				0,
				0.7071066498756409
			]
		},
		{
			"children":[
				13
			],
			"name":"Sketchfab_model",
			"rotation":[
				0,
				-0.7071068286895752,
				-0.7071068286895752,
				1.001535330253731e-16
			],
			"scale":[
				0.19568422436714172,
				0.19568420946598053,
				0.19568420946598053
			]
		}
	],
	"materials":[
		{
			"alphaMode":"BLEND",
			"doubleSided":true,
			"name":"actionButtonsColor",
			"normalTexture":{
				"index":0
			},
			"pbrMetallicRoughness":{
				"baseColorTexture":{
					"index":1
				},
				"metallicRoughnessTexture":{
					"index":2
				}
			}
		},
		{
			"alphaMode":"BLEND",
			"doubleSided":true,
			"name":"analogsColor",
			"normalTexture":{
				"index":3
			},
			"pbrMetallicRoughness":{
				"baseColorTexture":{
					"index":4
				},
				"metallicRoughnessTexture":{
					"index":5
				}
			}
		},
		{
			"doubleSided":true,
			"name":"backPlateColor",
			"normalTexture":{
				"index":6
			},
			"pbrMetallicRoughness":{
				"baseColorTexture":{
					"index":7
				},
				"metallicRoughnessTexture":{
					"index":8
				}
			}
		},
		{
			"alphaMode":"BLEND",
			"doubleSided":true,
			"name":"directionalButtonsColor",
			"normalTexture":{
				"index":9
			},
			"pbrMetallicRoughness":{
				"baseColorTexture":{
					"index":10
				},
				"metallicRoughnessTexture":{
					"index":11
				}
			}
		},
		{
			"alphaMode":"BLEND",
			"doubleSided":true,
			"emissiveFactor":[
				1,
				1,
				1
			],
			"emissiveTexture":{
				"index":12
			},
			"name":"frontPlateLowerMaskColor",
			"normalTexture":{
				"index":13
			},
			"pbrMetallicRoughness":{
				"baseColorTexture":{
					"index":14
				},
				"metallicRoughnessTexture":{
					"index":15
				}
			}
		},
		{
			"alphaMode":"BLEND",
			"doubleSided":true,
			"emissiveFactor":[
				1,
				1,
				1
			],
			"emissiveTexture":{
				"index":16
			},
			"name":"frontPlateOutlineColor",
			"normalTexture":{
				"index":17
			},
			"pbrMetallicRoughness":{
				"baseColorTexture":{
					"index":18
				},
				"metallicRoughnessTexture":{
					"index":19
				}
			}
		},
		{
			"alphaMode":"BLEND",
			"doubleSided":true,
			"emissiveFactor":[
				1,
				1,
				1
			],
			"emissiveTexture":{
				"index":20
			},
			"name":"frontPlateSideMasksColor",
			"normalTexture":{
				"index":21
			},
			"pbrMetallicRoughness":{
				"baseColorTexture":{
					"index":22
				},
				"metallicRoughnessTexture":{
					"index":23
				}
			}
		},
		{
			"alphaMode":"BLEND",
			"doubleSided":true,
			"emissiveFactor":[
				1,
				1,
				1
			],
			"emissiveTexture":{
				"index":24
			},
			"name":"frontPlateTouchpadColor",
			"normalTexture":{
				"index":25
			},
			"pbrMetallicRoughness":{
				"baseColorTexture":{
					"index":26
				},
				"metallicRoughnessTexture":{
					"index":27
				}
			}
		},
		{
			"alphaMode":"BLEND",
			"doubleSided":true,
			"name":"internalsColor",
			"normalTexture":{
				"index":28
			},
			"pbrMetallicRoughness":{
				"baseColorTexture":{
					"index":29
				},
				"metallicRoughnessTexture":{
					"index":30
				}
			}
		},
		{
			"alphaMode":"BLEND",
			"doubleSided":true,
			"name":"optionsShareButtonColor",
			"normalTexture":{
				"index":31
			},
			"pbrMetallicRoughness":{
				"baseColorTexture":{
					"index":32
				},
				"metallicRoughnessTexture":{
					"index":33
				}
			}
		},
		{
			"alphaMode":"BLEND",
			"doubleSided":true,
			"name":"psButtonColor",
			"normalTexture":{
				"index":34
			},
			"pbrMetallicRoughness":{
				"baseColorTexture":{
					"index":35
				},
				"metallicRoughnessTexture":{
					"index":36
				}
			}
		},
		{
			"alphaMode":"BLEND",
			"doubleSided":true,
			"name":"triggersColor",
			"normalTexture":{
				"index":37
			},
			"pbrMetallicRoughness":{
				"baseColorTexture":{
					"index":38
				},
				"metallicRoughnessTexture":{
					"index":39
				}
			}
		}
	],
	"meshes":[
		{
			"name":"actionButtons",
			"primitives":[
				{
					"attributes":{
						"POSITION":0,
						"NORMAL":1,
						"TEXCOORD_0":2
					},
					"indices":3,
					"material":0
				}
			]
		},
		{
			"name":"analogs",
			"primitives":[
				{
					"attributes":{
						"POSITION":4,
						"NORMAL":5,
						"TEXCOORD_0":6
					},
					"indices":7,
					"material":1
				}
			]
		},
		{
			"name":"backPlate",
			"primitives":[
				{
					"attributes":{
						"POSITION":8,
						"NORMAL":9,
						"TEXCOORD_0":10
					},
					"indices":11,
					"material":2
				}
			]
		},
		{
			"name":"directionalButtons",
			"primitives":[
				{
					"attributes":{
						"POSITION":12,
						"NORMAL":13,
						"TEXCOORD_0":14
					},
					"indices":15,
					"material":3
				}
			]
		},
		{
			"name":"frontPlateLowerMask",
			"primitives":[
				{
					"attributes":{
						"POSITION":16,
						"NORMAL":17,
						"TEXCOORD_0":18
					},
					"indices":19,
					"material":4
				}
			]
		},
		{
			"name":"frontPlateOutline",
			"primitives":[
				{
					"attributes":{
						"POSITION":20,
						"NORMAL":21,
						"TEXCOORD_0":22
					},
					"indices":23,
					"material":5
				}
			]
		},
		{
			"name":"frontPlateSideMasks",
			"primitives":[
				{
					"attributes":{
						"POSITION":24,
						"NORMAL":25,
						"TEXCOORD_0":26
					},
					"indices":27,
					"material":6
				}
			]
		},
		{
			"name":"frontPlateTouchpad",
			"primitives":[
				{
					"attributes":{
						"POSITION":28,
						"NORMAL":29,
						"TEXCOORD_0":30
					},
					"indices":31,
					"material":7
				}
			]
		},
		{
			"name":"internals",
			"primitives":[
				{
					"attributes":{
						"POSITION":32,
						"NORMAL":33,
						"TEXCOORD_0":34
					},
					"indices":35,
					"material":8
				}
			]
		},
		{
			"name":"optionsShareButtons",
			"primitives":[
				{
					"attributes":{
						"POSITION":36,
						"NORMAL":37,
						"TEXCOORD_0":38
					},
					"indices":39,
					"material":9
				}
			]
		},
		{
			"name":"psButton",
			"primitives":[
				{
					"attributes":{
						"POSITION":40,
						"NORMAL":41,
						"TEXCOORD_0":42
					},
					"indices":43,
					"material":10
				}
			]
		},
		{
			"name":"triggers",
			"primitives":[
				{
					"attributes":{
						"POSITION":44,
						"NORMAL":45,
						"TEXCOORD_0":46
					},
					"indices":47,
					"material":11
				}
			]
		}
	],
	"textures":[
		{
			"sampler":0,
			"source":0
		},
		{
			"sampler":0,
			"source":1
		},
		{
			"sampler":0,
			"source":2
		},
		{
			"sampler":0,
			"source":0
		},
		{
			"sampler":0,
			"source":1
		},
		{
			"sampler":0,
			"source":2
		},
		{
			"sampler":0,
			"source":3
		},
		{
			"sampler":0,
			"source":4
		},
		{
			"sampler":0,
			"source":5
		},
		{
			"sampler":0,
			"source":0
		},
		{
			"sampler":0,
			"source":1
		},
		{
			"sampler":0,
			"source":2
		},
		{
			"sampler":0,
			"source":6
		},
		{
			"sampler":0,
			"source":7
		},
		{
			"sampler":0,
			"source":8
		},
		{
			"sampler":0,
			"source":9
		},
		{
			"sampler":0,
			"source":6
		},
		{
			"sampler":0,
			"source":7
		},
		{
			"sampler":0,
			"source":8
		},
		{
			"sampler":0,
			"source":9
		},
		{
			"sampler":0,
			"source":6
		},
		{
			"sampler":0,
			"source":7
		},
		{
			"sampler":0,
			"source":8
		},
		{
			"sampler":0,
			"source":9
		},
		{
			"sampler":0,
			"source":6
		},
		{
			"sampler":0,
			"source":7
		},
		{
			"sampler":0,
			"source":8
		},
		{
			"sampler":0,
			"source":9
		},
		{
			"sampler":0,
			"source":0
		},
		{
			"sampler":0,
			"source":1
		},
		{
			"sampler":0,
			"source":2
		},
		{
			"sampler":0,
			"source":0
		},
		{
			"sampler":0,
			"source":1
		},
		{
			"sampler":0,
			"source":2
		},
		{
			"sampler":0,
			"source":0
		},
		{
			"sampler":0,
			"source":1
		},
		{
			"sampler":0,
			"source":2
		},
		{
			"sampler":0,
			"source":0
		},
		{
			"sampler":0,
			"source":1
		},
		{
			"sampler":0,
			"source":2
		}
	],
	"images":[
		{
			"mimeType":"image/png",
			"name":"buttons_normal",
			"uri":"textures/buttons_normal.png"
		},
		{
			"mimeType":"image/png",
			"name":"buttons_baseColor",
			"uri":"textures/buttons_baseColor.png"
		},
		{
			"mimeType":"image/png",
			"name":"buttons_metallicRoughness",
			"uri":"textures/buttons_metallicRoughness.png"
		},
		{
			"mimeType":"image/png",
			"name":"backPlate_normal",
			"uri":"textures/backPlate_normal.png"
		},
		{
			"mimeType":"image/jpeg",
			"name":"backPlate_baseColor",
			"uri":"textures/backPlate_baseColor.jpg"
		},
		{
			"mimeType":"image/png",
			"name":"backPlate_metallicRoughness",
			"uri":"textures/backPlate_metallicRoughness.png"
		},
		{
			"mimeType":"image/jpeg",
			"name":"frontPlate_emissive",
			"uri":"textures/frontPlate_emissive.jpg"
		},
		{
			"mimeType":"image/png",
			"name":"frontPlate_normal",
			"uri":"textures/frontPlate_normal.png"
		},
		{
			"mimeType":"image/png",
			"name":"frontPlate_baseColor",
			"uri":"textures/frontPlate_baseColor.png"
		},
		{
			"mimeType":"image/png",
			"name":"frontPlate_metallicRoughness",
			"uri":"textures/frontPlate_metallicRoughness.png"
		}
	],
	"accessors":[
		{
			"bufferView":0,
			"componentType":5126,
			"count":2172,
			"max":[
				0.8315790295600891,
				0.48614901304244995,
				0.32774099707603455
			],
			"min":[
				0.4133610129356384,
				0.06575100123882294,
				0.2717689871788025
			],
			"type":"VEC3"
		},
		{
			"bufferView":1,
			"componentType":5126,
			"count":2172,
			"type":"VEC3"
		},
		{
			"bufferView":2,
			"componentType":5126,
			"count":2172,
			"type":"VEC2"
		},
		{
			"bufferView":3,
			"componentType":5123,
			"count":12288,
			"type":"SCALAR"
		},
		{
			"bufferView":4,
			"componentType":5126,
			"count":2394,
			"max":[
				0.4345720112323761,
				0.11566700041294098,
				0.40994998812675476
			],
			"min":[
				-0.4345720112323761,
				-0.11818400025367737,
				0.36392900347709656
			],
			"type":"VEC3"
		},
		{
			"bufferView":5,
			"componentType":5126,
			"count":2394,
			"type":"VEC3"
		},
		{
			"bufferView":6,
			"componentType":5126,
			"count":2394,
			"type":"VEC2"
		},
		{
			"bufferView":7,
			"componentType":5123,
			"count":13632,
			"type":"SCALAR"
		},
		{
			"bufferView":8,
			"componentType":5126,
			"count":7917,
			"max":[
				1,
				0.6402999758720398,
				0.30517399311065674
			],
			"min":[
				-1,
				-0.6499390006065369,
				-0.40994998812675476
			],
			"type":"VEC3"
		},
		{
			"bufferView":9,
			"componentType":5126,
			"count":7917,
			"type":"VEC3"
		},
		{
			"bufferView":10,
			"componentType":5126,
			"count":7917,
			"type":"VEC2"
		},
		{
			"bufferView":11,
			"componentType":5123,
			"count":41856,
			"type":"SCALAR"
		},
		{
			"bufferView":12,
			"componentType":5126,
			"count":1276,
			"max":[
				-0.45301100611686707,
				0.4470129907131195,
				0.3224489986896515
			],
			"min":[
				-0.7939280271530151,
				0.10563500225543976,
				0.29739201068878174
			],
			"type":"VEC3"
		},
		{
			"bufferView":13,
			"componentType":5126,
			"count":1276,
			"type":"VEC3"
		},
		{
			"bufferView":14,
			"componentType":5126,
			"count":1276,
			"type":"VEC2"
		},
		{
			"bufferView":15,
			"componentType":5123,
			"count":7176,
			"type":"SCALAR"
		},
		{
			"bufferView":16,
			"componentType":5126,
			"count":12297,
			"max":[
				0.9773989915847778,
				0.3906489908695221,
				0.3257409930229187
			],
			"min":[
				-0.9773989915847778,
				-0.6488379836082458,
				-0.39042899012565613
			],
			"type":"VEC3"
		},
		{
			"bufferView":17,
			"componentType":5126,
			"count":12297,
			"type":"VEC3"
		},
		{
			"bufferView":18,
			"componentType":5126,
			"count":12297,
			"type":"VEC2"
		},
		{
			"bufferView":19,
			"componentType":5123,
			"count":68760,
			"type":"SCALAR"
		},
		{
			"bufferView":20,
			"componentType":5126,
			"count":5874,
			"max":[
				0.8340529799461365,
				0.6299780011177063,
				0.32679399847984314
			],
			"min":[
				-0.7983660101890564,
				-0.1721390038728714,
				0.14652499556541443
			],
			"type":"VEC3"
		},
		{
			"bufferView":21,
			"componentType":5126,
			"count":5874,
			"type":"VEC3"
		},
		{
			"bufferView":22,
			"componentType":5126,
			"count":5874,
			"type":"VEC2"
		},
		{
			"bufferView":23,
			"componentType":5123,
			"count":29328,
			"type":"SCALAR"
		},
		{
			"bufferView":24,
			"componentType":5126,
			"count":5600,
			"max":[
				0.9984710216522217,
				0.6079260110855103,
				0.3122920095920563
			],
			"min":[
				-0.9984710216522217,
				-0.6463220119476318,
				-0.2437169998884201
			],
			"type":"VEC3"
		},
		{
			"bufferView":25,
			"componentType":5126,
			"count":5600,
			"type":"VEC3"
		},
		{
			"bufferView":26,
			"componentType":5126,
			"count":5600,
			"type":"VEC2"
		},
		{
			"bufferView":27,
			"componentType":5123,
			"count":31932,
			"type":"SCALAR"
		},
		{
			"bufferView":28,
			"componentType":5126,
			"count":1405,
			"max":[
				0.40106600522994995,
				0.6400989890098572,
				0.3119550049304962
			],
			"min":[
				-0.40106600522994995,
				0.20756900310516357,
				0.18838399648666382
			],
			"type":"VEC3"
		},
		{
			"bufferView":29,
			"componentType":5126,
			"count":1405,
			"type":"VEC3"
		},
		{
			"bufferView":30,
			"componentType":5126,
			"count":1405,
			"type":"VEC2"
		},
		{
			"bufferView":31,
			"componentType":5123,
			"count":8160,
			"type":"SCALAR"
		},
		{
			"bufferView":32,
			"componentType":5126,
			"count":18114,
			"max":[
				0.8315790295600891,
				0.6344959735870361,
				0.36392900347709656
			],
			"min":[
				-0.799278974533081,
				-0.1982859969139099,
				0.004494070075452328
			],
			"type":"VEC3"
		},
		{
			"bufferView":33,
			"componentType":5126,
			"count":18114,
			"type":"VEC3"
		},
		{
			"bufferView":34,
			"componentType":5126,
			"count":18114,
			"type":"VEC2"
		},
		{
			"bufferView":35,
			"componentType":5123,
			"count":91656,
			"type":"SCALAR"
		},
		{
			"bufferView":36,
			"componentType":5126,
			"count":350,
			"max":[
				0.4931580126285553,
				0.5385890007019043,
				0.3146060109138489
			],
			"min":[
				-0.4931580126285553,
				0.4485290050506592,
				0.27274200320243835
			],
			"type":"VEC3"
		},
		{
			"bufferView":37,
			"componentType":5126,
			"count":350,
			"type":"VEC3"
		},
		{
			"bufferView":38,
			"componentType":5126,
			"count":350,
			"type":"VEC2"
		},
		{
			"bufferView":39,
			"componentType":5123,
			"count":1728,
			"type":"SCALAR"
		},
		{
			"bufferView":40,
			"componentType":5126,
			"count":3532,
			"max":[
				0.06817889958620071,
				0.07326730340719223,
				0.28314000368118286
			],
			"min":[
				-0.06839259713888168,
				-0.03387419879436493,
				0.23182900249958038
			],
			"type":"VEC3"
		},
		{
			"bufferView":41,
			"componentType":5126,
			"count":3532,
			"type":"VEC3"
		},
		{
			"bufferView":42,
			"componentType":5126,
			"count":3532,
			"type":"VEC2"
		},
		{
			"bufferView":43,
			"componentType":5123,
			"count":15912,
			"type":"SCALAR"
		},
		{
			"bufferView":44,
			"componentType":5126,
			"count":2326,
			"max":[
				0.7644510269165039,
				0.6499390006065369,
				0.23988699913024902
			],
			"min":[
				-0.7644510269165039,
				0.4089910089969635,
				-0.23951099812984467
			],
			"type":"VEC3"
		},
		{
			"bufferView":45,
			"componentType":5126,
			"count":2326,
			"type":"VEC3"
		},
		{
			"bufferView":46,
			"componentType":5126,
			"count":2326,
			"type":"VEC2"
		},
		{
			"bufferView":47,
			"componentType":5123,
			"count":12600,
			"type":"SCALAR"
		}
	],
	"bufferViews":[
		{
			"buffer":0,
			"byteLength":26064,
			"byteOffset":0,
			"target":34962
		},
		{
			"buffer":0,
			"byteLength":26064,
			"byteOffset":26064,
			"target":34962
		},
		{
			"buffer":0,
			"byteLength":17376,
			"byteOffset":52128,
			"target":34962
		},
		{
			"buffer":0,
			"byteLength":24576,
			"byteOffset":69504,
			"target":34963
		},
		{
			"buffer":0,
			"byteLength":28728,
			"byteOffset":94080,
			"target":34962
		},
		{
			"buffer":0,
			"byteLength":28728,
			"byteOffset":122808,
			"target":34962
		},
		{
			"buffer":0,
			"byteLength":19152,
			"byteOffset":151536,
			"target":34962
		},
		{
			"buffer":0,
			"byteLength":27264,
			"byteOffset":170688,
			"target":34963
		},
		{
			"buffer":0,
			"byteLength":95004,
			"byteOffset":197952,
			"target":34962
		},
		{
			"buffer":0,
			"byteLength":95004,
			"byteOffset":292956,
			"target":34962
		},
		{
			"buffer":0,
			"byteLength":63336,
			"byteOffset":387960,
			"target":34962
		},
		{
			"buffer":0,
			"byteLength":83712,
			"byteOffset":451296,
			"target":34963
		},
		{
			"buffer":0,
			"byteLength":15312,
			"byteOffset":535008,
			"target":34962
		},
		{
			"buffer":0,
			"byteLength":15312,
			"byteOffset":550320,
			"target":34962
		},
		{
			"buffer":0,
			"byteLength":10208,
			"byteOffset":565632,
			"target":34962
		},
		{
			"buffer":0,
			"byteLength":14352,
			"byteOffset":575840,
			"target":34963
		},
		{
			"buffer":0,
			"byteLength":147564,
			"byteOffset":590192,
			"target":34962
		},
		{
			"buffer":0,
			"byteLength":147564,
			"byteOffset":737756,
			"target":34962
		},
		{
			"buffer":0,
			"byteLength":98376,
			"byteOffset":885320,
			"target":34962
		},
		{
			"buffer":0,
			"byteLength":137520,
			"byteOffset":983696,
			"target":34963
		},
		{
			"buffer":0,
			"byteLength":70488,
			"byteOffset":1121216,
			"target":34962
		},
		{
			"buffer":0,
			"byteLength":70488,
			"byteOffset":1191704,
			"target":34962
		},
		{
			"buffer":0,
			"byteLength":46992,
			"byteOffset":1262192,
			"target":34962
		},
		{
			"buffer":0,
			"byteLength":58656,
			"byteOffset":1309184,
			"target":34963
		},
		{
			"buffer":0,
			"byteLength":67200,
			"byteOffset":1367840,
			"target":34962
		},
		{
			"buffer":0,
			"byteLength":67200,
			"byteOffset":1435040,
			"target":34962
		},
		{
			"buffer":0,
			"byteLength":44800,
			"byteOffset":1502240,
			"target":34962
		},
		{
			"buffer":0,
			"byteLength":63864,
			"byteOffset":1547040,
			"target":34963
		},
		{
			"buffer":0,
			"byteLength":16860,
			"byteOffset":1610904,
			"target":34962
		},
		{
			"buffer":0,
			"byteLength":16860,
			"byteOffset":1627764,
			"target":34962
		},
		{
			"buffer":0,
			"byteLength":11240,
			"byteOffset":1644624,
			"target":34962
		},
		{
			"buffer":0,
			"byteLength":16320,
			"byteOffset":1655864,
			"target":34963
		},
		{
			"buffer":0,
			"byteLength":217368,
			"byteOffset":1672184,
			"target":34962
		},
		{
			"buffer":0,
			"byteLength":217368,
			"byteOffset":1889552,
			"target":34962
		},
		{
			"buffer":0,
			"byteLength":144912,
			"byteOffset":2106920,
			"target":34962
		},
		{
			"buffer":0,
			"byteLength":183312,
			"byteOffset":2251832,
			"target":34963
		},
		{
			"buffer":0,
			"byteLength":4200,
			"byteOffset":2435144,
			"target":34962
		},
		{
			"buffer":0,
			"byteLength":4200,
			"byteOffset":2439344,
			"target":34962
		},
		{
			"buffer":0,
			"byteLength":2800,
			"byteOffset":2443544,
			"target":34962
		},
		{
			"buffer":0,
			"byteLength":3456,
			"byteOffset":2446344,
			"target":34963
		},
		{
			"buffer":0,
			"byteLength":42384,
			"byteOffset":2449800,
			"target":34962
		},
		{
			"buffer":0,
			"byteLength":42384,
			"byteOffset":2492184,
			"target":34962
		},
		{
			"buffer":0,
			"byteLength":28256,
			"byteOffset":2534568,
			"target":34962
		},
		{
			"buffer":0,
			"byteLength":31824,
			"byteOffset":2562824,
			"target":34963
		},
		{
			"buffer":0,
			"byteLength":27912,
			"byteOffset":2594648,
			"target":34962
		},
		{
			"buffer":0,
			"byteLength":27912,
			"byteOffset":2622560,
			"target":34962
		},
		{
			"buffer":0,
			"byteLength":18608,
			"byteOffset":2650472,
			"target":34962
		},
		{
			"buffer":0,
			"byteLength":25200,
			"byteOffset":2669080,
			"target":34963
		}
	],
	"samplers":[
		{
			"magFilter":9729,
			"minFilter":9987
		}
	],
	"buffers":[
		{
			"byteLength":2694280,
			"uri":"dualsense_controller.bin"
		}
	]
}
